<?xml version="1.0" encoding="UTF-8"?>
<!-- Generator: Blender, SVG Export for Grease Pencil - v2.0 -->
<!DOCTYPE svg PUBLIC "-//W3C//DTD SVG 1.1//EN" "http://www.w3.org/Graphics/SVG/1.1/DTD/svg11.dtd">
<svg version="1.0" x="0px" y="0px" xmlns="http://www.w3.org/2000/svg" width="1423.851440px" height="1423.851318px" viewBox="0 0 1423.851440 1423.851318">
	<g id="blender_frame_1">
		<g id="blender_object_Stroke.002">
			<!--Layer: Color-->
			<g id="Color">
				<polyline points="41.172256,248.412231 41.170990,41.171021 41.172256,41.171021" fill="#BBBBBB" stroke="none" fill-opacity="1" />
				<path d="M10.001328,248.412476L10.600388,254.493530L12.374100,260.340942L15.254791,265.729980L19.131256,270.453613L23.854858,274.330078L29.243835,277.210449L35.091309,278.984253L41.172501,279.583130L47.253693,278.984253L53.101044,277.210327L58.490143,274.329834L63.213623,270.453369L67.090088,265.729736L69.970657,260.340576L71.744370,254.493042L72.343292,248.411987L63.212250,63.212158L41.172256,72.342041L47.253448,71.743164L53.100922,69.969238L58.490021,67.088745L63.213501,63.212158L67.090088,58.488647L69.970520,53.099609L71.744370,47.252197L72.343292,41.171021L71.744370,35.089844L69.970520,29.242432L67.090088,23.853394L63.213501,19.129761L58.490021,15.253296L53.100922,12.372925L47.253448,10.599121L41.172256,10.000244L41.170990,10.000244L34.234833,10.781738L27.646362,13.087158L21.736115,16.800781L16.800461,21.736328L13.086868,27.646484L10.781540,34.234985L10.000076,41.171143z" fill="#BBBBBB" stroke="none" fill-opacity="1" />
				<polyline points="1175.440430,248.412231 1175.439087,41.171021 1175.440430,41.171021" fill="#BBBBBB" stroke="none" fill-opacity="1" />
				<path d="M1144.269409,248.412476L1144.868408,254.493530L1146.642334,260.341064L1149.522827,265.729980L1153.399414,270.453613L1158.123047,274.330078L1163.511963,277.210449L1169.359497,278.984253L1175.440674,279.583130L1181.521851,278.984253L1187.369263,277.210327L1192.758301,274.329834L1197.481812,270.453369L1201.358398,265.729736L1204.238770,260.340576L1206.012451,254.493042L1206.611450,248.411987L1197.480347,63.212158L1175.440430,72.342041L1181.521606,71.743164L1187.369019,69.969238L1192.758179,67.088745L1197.481567,63.212158L1201.358276,58.488647L1204.238647,53.099609L1206.012451,47.252197L1206.611450,41.171021L1206.012451,35.089844L1204.238647,29.242432L1201.358276,23.853394L1197.481567,19.129761L1192.758179,15.253296L1187.369019,12.372925L1181.521606,10.599121L1175.440430,10.000244L1175.439087,10.000244L1168.502930,10.781738L1161.914429,13.087158L1156.004395,16.800781L1151.068726,21.736328L1147.354980,27.646484L1145.049683,34.234985L1144.268188,41.171143z" fill="#BBBBBB" stroke="none" fill-opacity="1" />
				<polyline points="1175.429810,1382.678101 1175.428467,1175.436890 1175.429810,1175.436890" fill="#BBBBBB" stroke="none" fill-opacity="1" />
				<path d="M1144.258789,1382.678223L1144.857666,1388.759399L1146.631470,1394.606934L1149.512085,1399.995972L1153.388672,1404.719482L1158.112183,1408.595947L1163.501221,1411.476440L1169.348755,1413.250244L1175.429932,1413.849121L1181.510986,1413.250122L1187.358398,1411.476318L1192.747559,1408.595825L1197.471069,1404.719238L1201.347534,1399.995728L1204.228027,1394.606567L1206.001831,1388.759033L1206.600708,1382.677979L1197.469727,1197.478027L1175.429810,1206.607910L1181.510864,1206.008911L1187.358276,1204.235107L1192.747437,1201.354614L1197.470947,1197.478149L1201.347534,1192.754517L1204.227905,1187.365479L1206.001831,1181.518066L1206.600708,1175.436890L1206.001831,1169.355713L1204.227905,1163.508301L1201.347534,1158.119263L1197.470947,1153.395630L1192.747437,1149.519165L1187.358276,1146.638672L1181.510864,1144.864868L1175.429810,1144.265869L1175.428467,1144.265869L1168.492188,1145.047363L1161.903809,1147.352783L1155.993530,1151.066528L1151.057861,1156.002197L1147.344238,1161.912476L1145.038940,1168.500854L1144.257446,1175.437134z" fill="#BBBBBB" stroke="none" fill-opacity="1" />
				<polyline points="41.172256,1382.680298 41.170990,1175.439209 41.172256,1175.439209" fill="#BBBBBB" stroke="none" fill-opacity="1" />
				<path d="M10.001328,1382.680542L10.600388,1388.761719L12.374100,1394.609131L15.254791,1399.998169L19.131256,1404.721680L23.854736,1408.598145L29.243835,1411.478638L35.091309,1413.252441L41.172501,1413.851318L47.253571,1413.252441L53.101044,1411.478516L58.490143,1408.597900L63.213623,1404.721436L67.090088,1399.997925L69.970520,1394.608765L71.744370,1388.761353L72.343292,1382.680176L63.212250,1197.480347L41.172256,1206.610107L47.253448,1206.011230L53.100922,1204.237427L58.490021,1201.356934L63.213501,1197.480469L67.090088,1192.756836L69.970520,1187.367798L71.744370,1181.520386L72.343292,1175.439209L71.744370,1169.358032L69.970520,1163.510498L67.090088,1158.121582L63.213501,1153.397949L58.490021,1149.521484L53.100922,1146.640991L47.253448,1144.867188L41.172256,1144.268188L41.170990,1144.268188L34.234833,1145.049683L27.646362,1147.355103L21.736115,1151.068726L16.800461,1156.004395L13.086868,1161.914673L10.781540,1168.503174L9.999954,1175.439331z" fill="#BBBBBB" stroke="none" fill-opacity="1" />
			</g>
			<!--Layer: Lines-->
			<g id="Lines">
				<polyline points="41.172256,248.412231 248.401779,248.412231 248.412369,41.171021 41.170990,41.171021 41.172256,41.171021" fill="#BBBBBB" stroke="none" fill-opacity="1" />
				<path d="M41.172256,217.241089L35.091187,217.840210L29.243713,219.614014L23.854614,222.494507L19.131134,226.370972L15.254532,231.094482L12.374100,236.483643L10.600266,242.330933L10.001328,248.412231L10.600266,254.493408L12.374100,260.340820L15.254532,265.729858L19.131134,270.453491L23.854614,274.329956L29.243713,277.210449L35.091187,278.984253L41.172256,279.583252L248.401779,279.583252L255.337784,278.801758L261.926025,276.496460L267.836060,272.783081L272.771667,267.847778L276.485352,261.937866L278.790955,255.349731L279.572815,248.413696L279.583374,41.172607L278.802185,34.236206L276.497009,27.647461L272.783386,21.736938L267.847717,16.801147L261.937378,13.087280L255.348770,10.781738L248.412369,10.000000L41.170990,10.000244L35.089920,10.599243L29.242462,12.372925L23.853348,15.253296L19.129868,19.129761L15.253281,23.853516L12.372849,29.242432L10.598999,35.089966L10.000076,41.171021L10.598999,47.252197L12.372849,53.099609L15.253281,58.488647L19.129868,63.212158L23.853348,67.088623L29.242462,69.969238L35.089920,71.743042L41.170990,72.342041L41.172256,72.342041L47.253448,71.743164L53.100922,69.969238L58.490021,67.088745L63.213501,63.212158L67.090088,58.488647L69.970520,53.099609L71.744370,47.252197L72.343292,41.171021L71.744370,35.089844L69.970520,29.242432L67.090088,23.853394L63.213501,19.129761L58.490021,15.253296L53.100922,12.372925L47.253448,10.599121L41.172256,10.000244L41.170990,10.000244L35.089920,10.599243L29.242462,12.372925L23.853348,15.253296L19.129868,19.129761L15.253281,23.853516L12.372849,29.242432L10.598999,35.089966L10.000076,41.171021L10.598999,47.252197L12.372849,53.099609L15.253281,58.488647L19.129868,63.212158L23.853348,67.088623L29.242462,69.969238L35.089920,71.743042L41.170990,72.342041L217.239792,72.342041L217.232346,217.241089z" fill="#BBBBBB" stroke="none" fill-opacity="1" />
				<polyline points="248.407059,144.789307 1175.424194,144.789307" fill="#BBBBBB" stroke="none" fill-opacity="1" />
				<path d="M248.407059,113.618286L242.325943,114.217285L236.478531,115.991089L231.089432,118.871582L226.365860,122.748047L222.489334,127.471680L219.608841,132.860718L217.835068,138.708130L217.236130,144.789307L217.835068,150.870483L219.608902,156.718018L222.489334,162.107056L226.365860,166.830566L231.089432,170.707031L236.478531,173.587524L242.325943,175.361328L248.407059,175.960327L1175.424194,175.960327L1181.505493,175.361328L1187.352905,173.587524L1192.741821,170.707031L1197.465454,166.830566L1201.341919,162.107056L1204.222534,156.718018L1205.996338,150.870483L1206.595337,144.789307L1205.996338,138.708130L1204.222534,132.860718L1201.341919,127.471680L1197.465454,122.748047L1192.741821,118.871582L1187.352905,115.991089L1181.505493,114.217285L1175.424194,113.618286z" fill="#BBBBBB" stroke="none" fill-opacity="1" />
				<polyline points="1175.440430,248.412231 1382.669922,248.412231 1382.680420,41.171021 1175.439087,41.171021 1175.440430,41.171021" fill="#BBBBBB" stroke="none" fill-opacity="1" />
				<path d="M1175.440430,217.241089L1169.359253,217.840210L1163.511841,219.614014L1158.122681,222.494507L1153.399292,226.370972L1149.522705,231.094482L1146.642090,236.483643L1144.868408,242.330933L1144.269409,248.412231L1144.868408,254.493408L1146.642090,260.340820L1149.522705,265.729858L1153.399292,270.453491L1158.122681,274.329956L1163.511841,277.210449L1169.359253,278.984253L1175.440430,279.583252L1382.669922,279.583252L1389.605957,278.801758L1396.194092,276.496460L1402.104248,272.783081L1407.039795,267.847778L1410.753540,261.937866L1413.059082,255.349731L1413.840942,248.413696L1413.851562,41.172607L1413.070312,34.236206L1410.765137,27.647461L1407.051514,21.736938L1402.115845,16.801147L1396.205444,13.087280L1389.616943,10.781738L1382.680420,10.000000L1175.439087,10.000244L1169.358032,10.599243L1163.510620,12.372925L1158.121460,15.253296L1153.397949,19.129761L1149.521362,23.853516L1146.640991,29.242432L1144.867065,35.089966L1144.268188,41.171021L1144.867065,47.252197L1146.640991,53.099609L1149.521362,58.488647L1153.397949,63.212158L1158.121460,67.088623L1163.510620,69.969238L1169.358032,71.743042L1175.439087,72.342041L1175.440430,72.342041L1181.521606,71.743164L1187.369019,69.969238L1192.758179,67.088745L1197.481567,63.212158L1201.358276,58.488647L1204.238647,53.099609L1206.012451,47.252197L1206.611450,41.171021L1206.012451,35.089844L1204.238647,29.242432L1201.358276,23.853394L1197.481567,19.129761L1192.758179,15.253296L1187.369019,12.372925L1181.521606,10.599121L1175.440430,10.000244L1175.439087,10.000244L1169.358032,10.599243L1163.510620,12.372925L1158.121460,15.253296L1153.397949,19.129761L1149.521362,23.853516L1146.640991,29.242432L1144.867065,35.089966L1144.268188,41.171021L1144.867065,47.252197L1146.640991,53.099609L1149.521362,58.488647L1153.397949,63.212158L1158.121460,67.088623L1163.510620,69.969238L1169.358032,71.743042L1175.439087,72.342041L1351.507935,72.342041L1351.500488,217.241089z" fill="#BBBBBB" stroke="none" fill-opacity="1" />
				<polyline points="1175.429810,1382.678101 1382.659180,1382.678101 1382.669922,1175.436890 1175.428467,1175.436890 1175.429810,1175.436890" fill="#BBBBBB" stroke="none" fill-opacity="1" />
				<path d="M1175.429810,1351.507080L1169.348633,1352.106079L1163.501099,1353.879761L1158.112061,1356.760376L1153.388550,1360.636841L1149.511963,1365.360474L1146.631470,1370.749390L1144.857666,1376.596924L1144.258789,1382.678101L1144.857666,1388.759277L1146.631470,1394.606812L1149.511963,1399.995850L1153.388550,1404.719360L1158.112183,1408.595947L1163.501099,1411.476440L1169.348633,1413.250244L1175.429810,1413.849121L1382.659180,1413.849121L1389.595215,1413.067627L1396.183350,1410.762329L1402.093384,1407.049072L1407.029053,1402.113647L1410.742798,1396.203735L1413.048340,1389.615723L1413.830078,1382.679688L1413.840942,1175.438477L1413.059692,1168.501953L1410.754517,1161.913330L1407.040894,1156.002808L1402.105225,1151.066895L1396.194946,1147.353027L1389.606323,1145.047485L1382.669922,1144.265869L1175.428467,1144.265869L1169.347168,1144.864868L1163.499878,1146.638672L1158.110718,1149.519165L1153.387329,1153.395630L1149.510742,1158.119263L1146.630249,1163.508301L1144.856445,1169.355713L1144.257446,1175.436890L1144.856445,1181.518066L1146.630249,1187.365479L1149.510742,1192.754517L1153.387329,1197.478149L1158.110718,1201.354614L1163.499878,1204.235107L1169.347168,1206.008911L1175.428467,1206.607910L1175.429810,1206.607910L1181.510864,1206.008911L1187.358276,1204.235107L1192.747437,1201.354614L1197.470947,1197.478149L1201.347534,1192.754517L1204.227905,1187.365479L1206.001831,1181.518066L1206.600708,1175.436890L1206.001831,1169.355713L1204.227905,1163.508301L1201.347534,1158.119263L1197.470947,1153.395630L1192.747437,1149.519165L1187.358276,1146.638672L1181.510864,1144.864868L1175.429810,1144.265869L1175.428467,1144.265869L1169.347168,1144.864868L1163.499878,1146.638672L1158.110718,1149.519165L1153.387329,1153.395630L1149.510742,1158.119263L1146.630249,1163.508301L1144.856445,1169.355713L1144.257446,1175.436890L1144.856445,1181.518066L1146.630249,1187.365479L1149.510742,1192.754517L1153.387329,1197.478149L1158.110718,1201.354614L1163.499878,1204.235107L1169.347168,1206.008911L1175.428467,1206.607910L1351.497314,1206.607910L1351.489868,1351.507080z" fill="#BBBBBB" stroke="none" fill-opacity="1" />
				<polyline points="41.172256,1382.680298 248.401779,1382.680298 248.412369,1175.439209 41.170990,1175.439209 41.172256,1175.439209" fill="#BBBBBB" stroke="none" fill-opacity="1" />
				<path d="M41.172256,1351.509277L35.091187,1352.108276L29.243713,1353.882080L23.854614,1356.762573L19.131134,1360.639038L15.254532,1365.362671L12.374100,1370.751709L10.600266,1376.599243L10.001328,1382.680298L10.600266,1388.761475L12.374100,1394.609009L15.254532,1399.998169L19.131134,1404.721558L23.854614,1408.598145L29.243713,1411.478638L35.091187,1413.252441L41.172256,1413.851318L248.401779,1413.851318L255.337784,1413.069824L261.925903,1410.764648L267.835999,1407.051270L272.771667,1402.115967L276.485352,1396.205933L278.790955,1389.617920L279.572754,1382.682007L279.583374,1175.440796L278.802185,1168.504272L276.497009,1161.915649L272.783386,1156.005127L267.847717,1151.069092L261.937378,1147.355225L255.348770,1145.049805L248.412369,1144.268188L41.170990,1144.268188L35.089920,1144.867188L29.242462,1146.640869L23.853348,1149.521484L19.129868,1153.397949L15.253281,1158.121582L12.372849,1163.510498L10.598999,1169.358032L10.000076,1175.439209L10.598999,1181.520386L12.372849,1187.367798L15.253281,1192.756836L19.129868,1197.480469L23.853348,1201.356934L29.242462,1204.237427L35.089920,1206.011230L41.170990,1206.610107L41.172256,1206.610107L47.253448,1206.011230L53.100922,1204.237427L58.490021,1201.356934L63.213501,1197.480469L67.090088,1192.756836L69.970520,1187.367798L71.744370,1181.520386L72.343292,1175.439209L71.744370,1169.358032L69.970520,1163.510498L67.090088,1158.121582L63.213501,1153.397949L58.490021,1149.521484L53.100922,1146.640991L47.253448,1144.867188L41.172256,1144.268188L41.170990,1144.268188L35.089920,1144.867188L29.242462,1146.640869L23.853348,1149.521484L19.129868,1153.397949L15.253281,1158.121582L12.372849,1163.510498L10.598999,1169.358032L10.000076,1175.439209L10.598999,1181.520386L12.372849,1187.367798L15.253281,1192.756836L19.129868,1197.480469L23.853348,1201.356934L29.242462,1204.237427L35.089920,1206.011230L41.170990,1206.610107L217.239792,1206.610107L217.232346,1351.509277z" fill="#BBBBBB" stroke="none" fill-opacity="1" />
				<polyline points="248.407059,1279.059814 1175.424194,1279.059814" fill="#BBBBBB" stroke="none" fill-opacity="1" />
				<path d="M248.407059,1247.888794L242.325943,1248.487671L236.478531,1250.261475L231.089432,1253.142090L226.365860,1257.018555L222.489334,1261.742065L219.608841,1267.131104L217.835068,1272.978638L217.236130,1279.059814L217.835068,1285.140991L219.608902,1290.988403L222.489334,1296.377441L226.365860,1301.101074L231.089432,1304.977539L236.478531,1307.858032L242.325943,1309.631836L248.407059,1310.230835L1175.424194,1310.230835L1181.505493,1309.631836L1187.352905,1307.858032L1192.741821,1304.977539L1197.465454,1301.101074L1201.341919,1296.377441L1204.222534,1290.988403L1205.996338,1285.140991L1206.595337,1279.059814L1205.996338,1272.978638L1204.222534,1267.131104L1201.341919,1261.742065L1197.465454,1257.018555L1192.741821,1253.142090L1187.352905,1250.261597L1181.505493,1248.487671L1175.424194,1247.888794z" fill="#BBBBBB" stroke="none" fill-opacity="1" />
				<polyline points="144.786880,248.412231 144.786880,1175.436890" fill="#BBBBBB" stroke="none" fill-opacity="1" />
				<path d="M175.957932,248.412231L175.358994,242.330933L173.585159,236.483643L170.704727,231.094482L166.828140,226.370972L162.104660,222.494507L156.715561,219.614014L150.868088,217.840210L144.787003,217.241211L138.705826,217.840210L132.858353,219.614014L127.469254,222.494507L122.745773,226.370972L118.869156,231.094482L115.988724,236.483643L114.215012,242.331055L113.615952,248.412231L113.615952,1175.436890L114.214890,1181.518066L115.988724,1187.365479L118.869156,1192.754517L122.745773,1197.478027L127.469376,1201.354614L132.858353,1204.235107L138.705826,1206.008911L144.787003,1206.607910L150.868088,1206.008911L156.715561,1204.235107L162.104660,1201.354614L166.828140,1197.478027L170.704727,1192.754517L173.585159,1187.365479L175.358994,1181.518066L175.957932,1175.436890z" fill="#BBBBBB" stroke="none" fill-opacity="1" />
				<polyline points="1279.044312,248.412231 1279.044312,1175.436890" fill="#BBBBBB" stroke="none" fill-opacity="1" />
				<path d="M1310.215332,248.412231L1309.616455,242.330933L1307.842529,236.483643L1304.962036,231.094482L1301.085571,226.370972L1296.361938,222.494507L1290.972900,219.614014L1285.125488,217.840210L1279.044312,217.241089L1272.963135,217.840210L1267.115601,219.614014L1261.726685,222.494507L1257.003052,226.370972L1253.126587,231.094482L1250.246094,236.483643L1248.472290,242.330933L1247.873291,248.412231L1247.873291,1175.436890L1248.472290,1181.518066L1250.245972,1187.365479L1253.126587,1192.754639L1257.003052,1197.478149L1261.726685,1201.354614L1267.115601,1204.235107L1272.963135,1206.008911L1279.044312,1206.607910L1285.125488,1206.008911L1290.972900,1204.235107L1296.361938,1201.354614L1301.085571,1197.478149L1304.962036,1192.754517L1307.842529,1187.365479L1309.616455,1181.518066L1310.215332,1175.436890z" fill="#BBBBBB" stroke="none" fill-opacity="1" />
			</g>
			<!--Layer: Trace-->
			<g id="Trace">
				<polygon points="651.929138,777.661072 536.922180,777.126099 421.703796,777.126099 422.570068,613.906372 423.436401,445.505066 443.361328,417.006348 610.558044,411.824707 764.760132,411.824707 796.813354,438.596313 798.545898,443.777832 798.545898,609.588379 799.412292,775.398926 861.786194,729.628296 924.160095,682.994080 923.293762,533.591858 921.561096,378.144531 892.106873,324.601562 834.064392,292.648438 614.889526,290.921265 399.179871,290.921265 344.602722,310.783936 318.613647,335.828247 301.287537,371.235718 298.688599,387.644043 297.822327,747.763794 297.822327,1098.384033 477.147217,964.526611 661.669922,825.487549 670.333008,806.488342 662.169067,784.566772 655.605774,778.853271" fill="#1C4FA2" stroke="none" fill-opacity="1" />
				<path d="M651.922913,779.002563L652.184753,778.978027L652.436768,778.902832L652.669250,778.779968L652.873291,778.614075L653.041077,778.411560L653.166138,778.180237L653.243591,777.928894L653.270569,777.667297L653.246094,777.405457L653.170898,777.153442L653.048035,776.920959L652.882141,776.716858L652.679626,776.549133L652.448303,776.424072L652.196960,776.346558L651.935364,776.319580L536.928406,775.784607L423.052490,775.784607L423.911560,613.913513L424.775757,445.930603L444.075378,418.326416L610.578857,413.166321L764.273560,413.166321L795.661621,439.382202L797.204468,443.996216L797.204468,609.588379L798.070801,775.405945L798.104614,775.698364L798.201355,775.976318L798.356445,776.226562L798.562378,776.436890L798.809204,776.597229L799.085083,776.699951L799.376648,776.739929L799.670044,776.715393L799.950989,776.627563L800.205933,776.480469L862.579773,730.709839L924.963318,684.068542L925.190247,683.853333L925.361145,683.591431L925.466858,683.297180L925.501526,682.986328L924.635193,533.584106L922.902405,378.129639L922.736511,377.498047L893.282288,323.954956L893.055603,323.653076L892.753845,323.426270L834.711365,291.473267L834.075012,291.306885L614.900085,289.579834L399.179871,289.579834L344.143921,309.523438L343.671814,309.817993L317.682800,334.862305L300.082581,370.645996L297.363708,387.434204L296.480896,747.760620L296.480896,1098.384033L296.513550,1098.678345L296.609985,1098.958252L296.765503,1099.210327L296.972656,1099.422119L297.221069,1099.583252L297.498840,1099.685913L297.792297,1099.725220L298.087280,1099.699097L298.369446,1099.608887L298.624817,1099.458984L477.949707,965.601624L662.477234,826.558899L662.890503,826.044128L671.553650,807.044983L671.656006,806.710571L671.668457,806.361023L671.590149,806.020203L663.426147,784.098572L663.049866,783.554932L656.486633,777.841431L656.019592,777.577209L652.342896,776.384949L652.086060,776.328796L651.823059,776.323792L651.564209,776.370117L651.319397,776.466187L651.098022,776.608093L650.908508,776.790466L650.758240,777.006287L650.653076,777.247253L650.596863,777.504150L650.591797,777.767090L650.638245,778.025940L650.734192,778.270813L650.876160,778.492249L651.058472,778.681702L651.274353,778.831909L651.515320,778.937134L654.931580,780.044922L661.030945,785.354614L668.882202,806.436646L660.590637,824.621094L476.342346,963.453369L299.163818,1095.708618L299.163818,747.765442L300.029968,387.751221L302.580994,371.644531L319.714661,336.630249L345.328796,311.947388L399.416382,292.262817L614.884277,292.262817L833.714661,293.987183L891.118958,325.589111L920.223450,378.496216L921.952332,533.603271L922.814636,682.325012L860.987610,728.550293L800.740051,772.760620L799.887451,609.584900L799.887451,443.777832L798.085632,438.170837L797.673279,437.566650L765.620056,410.795166L765.217468,410.563599L764.760132,410.483276L610.558044,410.483276L443.319885,415.665527L443.012146,415.711060L442.723206,415.826355L442.468567,416.005127L442.261963,416.237671L422.336914,444.736328L422.157898,445.098755L422.094910,445.498108L421.228577,613.899414L420.362244,777.118958L420.394531,777.418640L420.492859,777.703552L420.652466,777.959290L420.864929,778.172974L421.119934,778.333862L421.404297,778.433716L421.703796,778.467590L536.919128,778.467590z" fill="#1C4FA2" stroke="none" fill-opacity="1" />
			</g>
			<!--Layer: Trace.001-->
			<g id="Trace.001">
				<polygon points="1001.261047,1118.246704 1035.046997,1117.383057 1075.763184,1115.655884 1125.142700,1067.294434 1126.875122,1060.385742 1126.875122,731.355530 1126.875122,391.962036 1114.746826,350.509399 1049.774170,295.239258 1014.255676,290.057739 1001.261047,289.193970 1001.261047,703.720398" fill="#EF8200" stroke="none" fill-opacity="1" />
				<path d="M1001.226746,1116.905762L1000.965881,1116.938110L1000.716248,1117.020874L1000.487488,1117.150635L1000.288513,1117.322754L1000.126892,1117.530151L1000.008850,1117.765259L999.939026,1118.018677L999.919983,1118.281006L999.952454,1118.541992L1000.035217,1118.791626L1000.165100,1119.020264L1000.336975,1119.219238L1000.544495,1119.380859L1000.779480,1119.498779L1001.033020,1119.568726L1001.295349,1119.587769L1035.081177,1118.724121L1075.820068,1116.996216L1076.296387,1116.886963L1076.701904,1116.614258L1126.081177,1068.252930L1126.443726,1067.620850L1128.176392,1060.712158L1128.216675,731.355530L1128.216675,391.962036L1116.034302,350.132690L1115.872437,349.779541L1115.616089,349.487549L1050.643311,294.217529L1050.327026,294.017090L1049.967773,293.911865L1014.449280,288.730225L1001.349915,287.855347L1001.037292,287.871338L1000.736877,287.959106L1000.465027,288.114136L1000.236389,288.328125L1000.063660,288.589111L999.956116,288.883179L999.919495,289.193970L999.919495,703.720398L999.919495,1118.246704L999.945374,1118.508423L1000.021790,1118.760132L1000.145691,1118.991943L1000.312439,1119.195312L1000.515808,1119.362183L1000.747620,1119.486084L1000.999329,1119.562500L1001.261047,1119.588135L1001.522766,1119.562500L1001.774475,1119.486084L1002.006409,1119.362183L1002.209656,1119.195312L1002.376526,1118.991943L1002.500427,1118.760132L1002.576843,1118.508423L1002.602478,1118.246704L1002.602478,703.720398L1002.602478,290.627686L1014.114075,291.392700L1049.198853,296.510986L1113.572021,351.271118L1125.533691,392.154297L1125.533691,731.355530L1125.533691,1060.220093L1123.933472,1066.600952L1075.192261,1114.337402L1035.001343,1116.042358z" fill="#EF8200" stroke="none" fill-opacity="1" />
				<polygon points="798.545898,829.805481 798.545898,943.800232 799.412292,1063.840088 849.657898,1115.655884 890.374207,1117.383057 925.026306,1118.246704 925.026306,927.391907 924.160095,735.673462 860.919861,783.171265" fill="#EF8200" stroke="none" fill-opacity="1" />
				<path d="M799.887451,829.805481L799.861633,829.543762L799.785339,829.292114L799.661377,829.060181L799.494568,828.856934L799.291260,828.690063L799.059326,828.566101L798.807678,828.489746L798.545898,828.463989L798.284180,828.489746L798.032593,828.566101L797.800598,828.690063L797.597351,828.856934L797.430481,829.060181L797.306580,829.292114L797.230164,829.543762L797.204468,829.805481L797.204468,943.800232L798.070801,1063.849854L798.116333,1064.186890L798.245239,1064.501709L798.449219,1064.774048L848.694763,1116.589844L848.958923,1116.801025L849.267517,1116.939453L849.601013,1116.996216L890.317322,1118.723389L924.992859,1119.587891L925.296814,1119.560669L925.586731,1119.465576L925.847717,1119.307373L926.066101,1119.094238L926.230774,1118.837402L926.333191,1118.549927L926.367859,1118.246704L926.367859,927.391907L925.501526,735.667419L925.467590,735.373413L925.369934,735.094055L925.213440,734.842896L925.005676,734.632080L924.756897,734.471985L924.478943,734.370422L924.185364,734.332214L923.890808,734.359253L923.609192,734.450256L923.354431,734.600769L860.115417,782.097778L797.742615,828.731079L797.548523,828.908447L797.392639,829.120300L797.281128,829.358459L797.218201,829.613770L797.206299,829.876526L797.245911,830.136475L797.335449,830.383728L797.471558,830.608765L797.648926,830.802917L797.860718,830.958801L798.098877,831.070312L798.354248,831.133240L798.616943,831.145142L798.876953,831.105530L799.124146,831.015991L799.349243,830.879944L861.723206,784.245728L922.830627,738.349731L923.684753,927.394958L923.684753,1116.871338L890.419373,1116.042236L850.248840,1114.338257L800.749878,1063.292480L799.887451,943.795410z" fill="#EF8200" stroke="none" fill-opacity="1" />
			</g>
		</g>
	</g>
</svg>
